# xmcd CD database file
#
# Track frame offsets:
#	150
#	10265
#	25190
#	36652
#	45882
#	60050
#	70340
#	79915
#	91929
#	101277
#
# Disc length: 1581 seconds
#
# Revision: 1
# Processed by: cddbd v1.5.2PL0 Copyright (c) Steve Scherf et al.
# Submitted via: jetAudio 7
#
DISCID=6d062b0a
DTITLE=Chet Atkins - All American Country
DYEAR=2005
DGENRE=Country
TTITLE0=Teensville
TTITLE1=Let It Be Me
TTITLE2=Sleep Walk
TTITLE3=Yakety Axe
TTITLE4=Fiddlin' Around
TTITLE5=Mister Sandman
TTITLE6=One Mint Julep
TTITLE7=A Taste Of Honey
TTITLE8=Yankee Doodle Dixie
TTITLE9=Dixie McGuire
EXTD=
EXTT0=
EXTT1=
EXTT2=
EXTT3=
EXTT4=
EXTT5=
EXTT6=
EXTT7=
EXTT8=
EXTT9=
PLAYORDER=
